<?xml version="1.0" standalone="no"?>
<!DOCTYPE svg PUBLIC "-//W3C//DTD SVG 20010904//EN"
 "http://www.w3.org/TR/2001/REC-SVG-20010904/DTD/svg10.dtd">
<svg version="1.0" xmlns="http://www.w3.org/2000/svg"
 width="354.000000pt" height="89.000000pt" viewBox="0 0 354.000000 89.000000"
 preserveAspectRatio="xMidYMid meet">

<g transform="translate(0.000000,89.000000) scale(0.100000,-0.100000)"
fill="#000000" stroke="none">
<path d="M3006 848 c-237 -32 -404 -283 -342 -514 32 -120 124 -231 233 -282
52 -24 69 -27 168 -27 103 0 114 2 177 32 210 99 299 346 200 557 -79 169
-247 260 -436 234z m189 -117 c62 -28 130 -94 162 -160 24 -47 28 -68 28 -136
-1 -96 -22 -151 -85 -219 -125 -136 -333 -136 -464 -1 -138 141 -106 394 62
492 94 56 205 65 297 24z"/>
<path d="M2972 686 c-51 -29 -95 -56 -99 -59 -3 -4 83 -7 193 -7 227 0 224 -3
77 77 l-78 42 -93 -53z"/>
<path d="M2860 525 l0 -55 75 0 75 0 0 -125 0 -125 60 0 60 0 0 125 0 125 75
0 75 0 0 55 0 55 -210 0 -210 0 0 -55z"/>
<path d="M2860 325 l0 -105 55 0 55 0 0 105 0 105 -55 0 -55 0 0 -105z"/>
<path d="M3167 424 c-4 -4 -7 -52 -7 -106 l0 -98 60 0 61 0 -3 103 -3 102 -50
3 c-28 2 -54 0 -58 -4z"/>
<path d="M930 735 c0 -8 7 -15 15 -15 8 0 15 7 15 15 0 8 -7 15 -15 15 -8 0
-15 -7 -15 -15z"/>
<path d="M987 744 c-13 -13 -7 -24 14 -24 11 0 19 5 17 12 -5 14 -22 21 -31
12z"/>
<path d="M82 623 l3 -88 310 -2 c207 -1 314 2 322 9 20 16 18 168 -2 168 -11
0 -15 -17 -17 -72 l-3 -73 -62 -3 c-35 -2 -63 1 -63 6 0 5 11 19 25 32 31 29
31 34 0 48 -28 13 -77 15 -112 6 -31 -9 -29 -41 2 -56 42 -19 23 -33 -48 -36
l-67 -3 0 76 c0 60 -3 75 -15 75 -12 0 -15 -13 -15 -56 0 -77 -11 -94 -61 -94
l-41 0 3 48 c3 36 0 47 -11 47 -10 0 -17 -14 -20 -45 -5 -42 -7 -45 -38 -48
-50 -5 -62 11 -62 84 0 51 -3 64 -15 64 -13 0 -15 -14 -13 -87z m488 -2 c0
-20 -25 -29 -43 -17 -25 19 -21 26 13 26 17 0 30 -4 30 -9z"/>
<path d="M770 620 c0 -83 1 -90 20 -90 19 0 20 7 20 90 0 83 -1 90 -20 90 -19
0 -20 -7 -20 -90z"/>
<path d="M1380 635 l0 -75 -45 0 -45 0 0 49 c0 41 -3 49 -17 47 -13 -2 -19
-15 -23 -47 -5 -44 -5 -44 -47 -47 l-43 -3 0 51 c0 44 -3 51 -17 48 -14 -2
-19 -15 -21 -51 l-3 -48 -42 3 -42 3 -5 60 -5 60 -48 -2 c-54 -2 -72 -13 -81
-48 -14 -54 33 -107 75 -84 18 9 24 8 31 -5 8 -14 42 -16 295 -16 l285 0 -7
37 c-9 51 -22 72 -49 82 -28 11 -72 3 -87 -15 -21 -26 -31 -15 -27 31 3 38 0
45 -14 45 -16 0 -18 -10 -18 -75z m-390 -9 c0 -41 -23 -65 -45 -46 -30 25 -12
80 27 80 14 0 18 -8 18 -34z m540 -27 c19 -34 11 -39 -55 -39 -63 0 -65 1 -55
21 13 23 67 49 87 42 8 -3 18 -14 23 -24z"/>
<path d="M2100 631 c0 -52 4 -82 13 -89 8 -7 75 -11 179 -11 137 1 171 -2 190
-15 48 -34 108 -7 108 48 0 39 -26 66 -63 66 -29 0 -67 -31 -67 -55 0 -11 -13
-15 -53 -15 -30 0 -56 3 -59 6 -3 3 5 16 18 29 13 13 24 28 24 33 0 14 -48 32
-86 32 -68 0 -99 -39 -49 -62 42 -19 23 -33 -46 -33 l-64 0 -3 73 c-3 64 -5
72 -22 72 -18 0 -20 -7 -20 -79z m245 -10 c3 -6 -3 -15 -13 -20 -15 -8 -23 -6
-37 9 -18 19 -17 20 13 20 17 0 33 -4 37 -9z m210 -40 c9 -29 -5 -52 -29 -49
-37 5 -34 68 3 68 11 0 22 -8 26 -19z"/>
<path d="M1966 685 c-3 -10 5 -20 23 -30 31 -15 41 -33 41 -71 0 -15 -6 -24
-15 -24 -10 0 -15 10 -15 29 0 30 -30 61 -58 61 -24 0 -64 -49 -57 -70 6 -18
2 -20 -33 -20 -36 0 -40 3 -45 30 -7 31 -37 56 -76 62 -37 5 -36 -16 1 -33 21
-9 34 -22 36 -36 3 -21 0 -23 -47 -23 -39 0 -51 -4 -51 -15 0 -13 28 -15 194
-15 168 0 195 2 200 16 17 44 -9 111 -53 137 -35 21 -37 21 -45 2z m-1 -95 c0
-16 -6 -26 -18 -28 -19 -4 -32 20 -23 44 9 25 41 13 41 -16z"/>
<path d="M157 504 c-13 -13 -7 -24 14 -24 11 0 19 5 17 12 -5 14 -22 21 -31
12z"/>
<path d="M210 495 c0 -8 7 -15 15 -15 8 0 15 7 15 15 0 8 -7 15 -15 15 -8 0
-15 -7 -15 -15z"/>
<path d="M1127 504 c-13 -13 -7 -24 14 -24 11 0 19 5 17 12 -5 14 -22 21 -31
12z"/>
<path d="M1200 495 c0 -8 7 -15 15 -15 8 0 15 7 15 15 0 8 -7 15 -15 15 -8 0
-15 -7 -15 -15z"/>
<path d="M1257 504 c-13 -13 -7 -24 14 -24 11 0 19 5 17 12 -5 14 -22 21 -31
12z"/>
<path d="M80 422 c0 -9 182 -12 733 -12 402 0 965 -3 1250 -7 390 -5 517 -3
517 5 0 9 -183 12 -732 12 -403 0 -966 3 -1250 7 -391 5 -518 3 -518 -5z"/>
<path d="M76 343 c-3 -3 -6 -35 -6 -70 0 -49 3 -63 15 -63 12 0 15 14 15 64 0
60 -8 84 -24 69z"/>
<path d="M987 343 c-4 -3 -7 -17 -7 -30 0 -20 -3 -22 -18 -14 -40 22 -83 -44
-50 -77 7 -7 29 -12 50 -12 l38 0 0 70 c0 70 -1 76 -13 63z m-13 -76 c16 -25
-16 -56 -38 -37 -19 15 -20 32 -4 48 15 15 28 11 42 -11z"/>
<path d="M1053 338 c-4 -8 -1 -9 27 -12 11 -1 16 -16 18 -58 2 -32 7 -58 12
-58 5 0 10 26 12 58 3 48 6 57 21 54 9 -2 17 3 17 10 0 14 -98 19 -107 6z"/>
<path d="M1180 281 c0 -41 4 -71 10 -71 6 0 10 15 10 34 0 33 13 47 38 39 6
-3 12 -20 12 -39 0 -19 5 -34 10 -34 14 0 12 64 -2 78 -7 7 -22 12 -35 12 -16
0 -23 6 -23 19 0 11 -4 23 -10 26 -6 4 -10 -20 -10 -64z"/>
<path d="M1408 344 c-5 -4 -8 -36 -8 -71 l0 -63 38 0 c45 0 62 14 62 51 0 32
-12 42 -51 41 -23 0 -28 4 -31 25 -2 14 -6 21 -10 17z m70 -83 c4 -29 -15 -43
-40 -30 -21 11 -23 30 -6 47 19 19 43 10 46 -17z"/>
<path d="M1770 281 c0 -41 4 -71 10 -71 6 0 10 28 10 64 0 36 -4 68 -10 71 -6
4 -10 -20 -10 -64z"/>
<path d="M2096 341 c-4 -5 -2 -12 3 -15 5 -4 12 -2 15 3 4 5 2 12 -3 15 -5 4
-12 2 -15 -3z"/>
<path d="M240 315 c0 -8 -5 -15 -11 -15 -8 0 -8 -4 -1 -12 6 -7 12 -26 14 -43
2 -23 8 -31 28 -33 23 -2 24 -1 8 11 -21 16 -24 63 -5 70 10 4 10 6 0 6 -7 1
-13 8 -13 16 0 8 -4 15 -10 15 -5 0 -10 -7 -10 -15z"/>
<path d="M726 315 c-4 -12 -18 -15 -50 -14 -50 3 -76 -13 -76 -46 0 -31 20
-45 63 -43 36 1 37 2 37 40 0 50 23 47 30 -3 4 -27 10 -35 30 -37 23 -2 24 -1
8 11 -10 8 -18 26 -18 40 0 16 7 27 18 30 16 4 16 5 0 6 -10 0 -18 8 -18 16 0
20 -16 19 -24 0z m-52 -47 c14 -22 -12 -52 -37 -42 -17 6 -23 44 -10 58 11 11
35 3 47 -16z"/>
<path d="M2030 315 c0 -8 -5 -15 -11 -15 -8 0 -8 -4 -1 -12 6 -7 12 -26 14
-43 2 -23 8 -31 28 -33 23 -2 24 -1 8 11 -10 8 -18 26 -18 40 0 16 7 27 18 30
16 4 16 5 0 6 -10 0 -18 8 -18 16 0 8 -4 15 -10 15 -5 0 -10 -7 -10 -15z"/>
<path d="M2143 310 c-8 -12 -9 -21 -3 -25 6 -3 10 -20 10 -36 0 -29 23 -50 38
-34 4 4 1 10 -5 12 -7 3 -13 17 -13 33 0 16 6 31 13 33 10 4 10 6 0 6 -7 1
-13 8 -13 16 0 21 -13 19 -27 -5z"/>
<path d="M2333 311 c-6 -10 -8 -22 -3 -27 5 -5 10 -22 12 -39 2 -24 8 -31 28
-33 23 -2 24 -1 8 11 -10 8 -18 26 -18 40 0 16 7 27 18 30 16 4 16 5 0 6 -10
0 -18 8 -18 16 0 21 -13 19 -27 -4z"/>
<path d="M322 294 c-24 -17 -29 -53 -10 -72 15 -15 68 -16 68 -1 0 6 -7 9 -15
5 -18 -6 -45 2 -45 15 0 5 16 9 35 9 28 0 35 4 35 20 0 10 -9 24 -19 30 -25
13 -22 13 -49 -6z m48 -19 c0 -16 -35 -21 -44 -6 -8 12 4 21 26 21 10 0 18 -7
18 -15z"/>
<path d="M430 293 c-22 -16 -27 -55 -7 -71 6 -5 23 -12 36 -14 31 -4 38 -24
12 -37 -15 -9 -23 -7 -36 5 -20 20 -33 11 -15 -11 31 -37 102 -4 79 38 -6 10
-6 23 -1 33 4 8 7 28 4 43 -3 22 -9 29 -28 29 -12 0 -32 -7 -44 -15z m49 -17
c15 -18 3 -46 -20 -46 -22 0 -34 22 -25 45 7 19 30 19 45 1z"/>
<path d="M548 302 c-26 -3 -28 -7 -28 -48 0 -24 5 -44 10 -44 6 0 10 15 10 34
0 33 20 53 41 40 5 -3 9 -1 9 5 0 14 -11 17 -42 13z"/>
<path d="M812 294 c-24 -17 -29 -53 -10 -72 15 -15 68 -16 68 -1 0 6 -7 9 -15
5 -18 -6 -45 2 -45 15 0 5 18 9 40 9 33 0 38 3 33 18 -6 17 -31 42 -43 42 -3
0 -16 -7 -28 -16z m51 -19 c-3 -13 -53 -20 -53 -7 0 15 13 23 35 20 11 -2 19
-7 18 -13z"/>
<path d="M1313 300 c-18 -7 -23 -17 -23 -44 0 -36 12 -46 56 -46 13 0 24 5 24
11 0 6 -7 9 -15 5 -18 -6 -45 2 -45 15 0 5 16 9 35 9 39 0 46 17 19 44 -17 18
-20 18 -51 6z m45 -27 c2 -8 -6 -13 -22 -13 -25 0 -33 10 -19 24 10 10 36 3
41 -11z"/>
<path d="M1542 294 c-24 -17 -29 -53 -10 -72 15 -15 68 -16 68 -1 0 6 -7 9
-15 5 -18 -6 -45 2 -45 15 0 5 18 9 40 9 45 0 50 10 20 40 -24 24 -29 24 -58
4z m46 -21 c2 -8 -5 -13 -17 -13 -21 0 -35 13 -24 24 10 10 36 3 41 -11z"/>
<path d="M1645 296 c-16 -12 -17 -16 -6 -30 7 -9 22 -16 32 -16 11 0 19 -7 19
-16 0 -13 -7 -15 -30 -10 -35 6 -39 1 -10 -14 14 -8 26 -8 41 0 26 14 21 42
-9 50 -28 6 -29 25 -2 24 24 -1 26 11 4 20 -20 8 -17 8 -39 -8z"/>
<path d="M1935 296 c-16 -12 -17 -16 -6 -30 7 -9 22 -16 32 -16 11 0 19 -7 19
-16 0 -12 -7 -14 -30 -9 -34 8 -39 1 -10 -15 14 -8 26 -8 41 0 26 14 21 42 -9
50 -28 6 -29 25 -2 24 24 -1 26 11 4 20 -20 8 -17 8 -39 -8z"/>
<path d="M2422 294 c-24 -17 -29 -53 -10 -72 15 -15 68 -16 68 -1 0 6 -7 9
-15 5 -18 -6 -45 2 -45 15 0 5 18 9 40 9 45 0 50 10 20 40 -24 24 -29 24 -58
4z m46 -21 c2 -8 -6 -13 -22 -13 -25 0 -33 10 -19 24 10 10 36 3 41 -11z"/>
<path d="M2525 296 c-16 -12 -17 -16 -6 -30 7 -9 22 -16 32 -16 11 0 19 -7 19
-16 0 -13 -7 -15 -30 -10 -35 6 -39 1 -10 -14 14 -8 26 -8 41 0 26 15 21 43
-10 50 -36 8 -39 30 -4 30 22 0 25 2 13 10 -20 13 -23 12 -45 -4z"/>
<path d="M120 253 c0 -23 5 -43 10 -43 6 0 10 15 10 34 0 38 10 49 34 40 10
-4 16 -18 16 -40 0 -19 5 -34 10 -34 12 0 13 59 2 77 -4 7 -25 12 -45 11 -37
-1 -37 -2 -37 -45z"/>
<path d="M1810 254 c0 -24 5 -44 10 -44 6 0 10 13 10 29 0 31 22 57 40 46 5
-3 10 -22 10 -41 0 -19 5 -34 11 -34 6 0 9 17 7 43 l-3 42 -42 1 -43 2 0 -44z"/>
<path d="M2090 255 c0 -25 5 -45 10 -45 6 0 10 20 10 45 0 25 -4 45 -10 45 -5
0 -10 -20 -10 -45z"/>
<path d="M2210 266 c0 -41 16 -56 58 -53 31 2 32 4 32 45 0 23 -4 42 -10 42
-5 0 -10 -15 -10 -34 0 -36 -19 -53 -39 -33 -6 6 -11 24 -11 39 0 15 -4 28
-10 28 -5 0 -10 -15 -10 -34z"/>
</g>
</svg>
